<?xml version="1.0" encoding="UTF-8" standalone="no"?>
<svg
   xmlns:dc="http://purl.org/dc/elements/1.1/"
   xmlns:cc="http://creativecommons.org/ns#"
   xmlns:rdf="http://www.w3.org/1999/02/22-rdf-syntax-ns#"
   xmlns:svg="http://www.w3.org/2000/svg"
   xmlns="http://www.w3.org/2000/svg"
   xmlns:sodipodi="http://sodipodi.sourceforge.net/DTD/sodipodi-0.dtd"
   xmlns:inkscape="http://www.inkscape.org/namespaces/inkscape"
   width="58.627918mm"
   height="39.25922mm"
   viewBox="0 0 58.627918 39.25922"
   version="1.1"
   id="svg6"
   sodipodi:docname="logov2.svg"
   inkscape:version="0.92.4 (5da689c313, 2019-01-14)">
  <metadata
     id="metadata12">
    <rdf:RDF>
      <cc:Work
         rdf:about="">
        <dc:format>image/svg+xml</dc:format>
        <dc:type
           rdf:resource="http://purl.org/dc/dcmitype/StillImage" />
      </cc:Work>
    </rdf:RDF>
  </metadata>
  <defs
     id="defs10" />
  <sodipodi:namedview
     pagecolor="#ffffff"
     bordercolor="#666666"
     borderopacity="1"
     objecttolerance="10"
     gridtolerance="10"
     guidetolerance="10"
     inkscape:pageopacity="0"
     inkscape:pageshadow="2"
     inkscape:window-width="1920"
     inkscape:window-height="1001"
     id="namedview8"
     showgrid="false"
     inkscape:zoom="1.1893044"
     inkscape:cx="275.52434"
     inkscape:cy="-39.577055"
     inkscape:window-x="-9"
     inkscape:window-y="-9"
     inkscape:window-maximized="1"
     inkscape:current-layer="svg6" />
  <path
     d="m 0.724,16.33822 c 0.347,-0.713 0.68,-1.433 1.038,-2.14 0.718,-1.397 1.62,-2.685 2.56,-3.94 A 32.84,32.84 0 0 1 7.596,6.6512199 c 0.28,-0.263 0.57,-0.515 0.856,-0.772 1.152,-1.018 2.341,-1.997 3.6,-2.881 0.755,-0.53 0.92,-0.616 1.697,-1.092 1.183,-0.678 2.426,-1.27700002 3.75,-1.62300002 0.211,-0.055 0.426,-0.094 0.64,-0.142 1.15,-0.2 2.292,-0.143 3.464,-0.096 0.236,0.01 0.608,0.126 0.823,0.23 0.115,0.054 0.218,0.131 0.327,0.198 0.09,0.084 0.188,0.16 0.267,0.253 0.252,0.29600002 0.391,0.67400002 0.436,1.05700002 0.044,0.379 0.005,0.59 -0.028,0.972 -0.242,1.468 -0.926,2.808 -1.602,4.117 -1.06,1.995 -2.31,3.8800001 -3.57,5.7530001 -1.676,2.448 -3.422,4.846 -5.157,7.251 a 285.363,285.363 0 0 0 -5.619,8.05 168.691,168.691 0 0 0 -4.61,7.32 c -0.774,1.34 -0.4,0.682 -1.124,1.974 L 0,37.12922 c 0.756,-1.292 0.367,-0.634 1.17,-1.974 a 202.783,202.783 0 0 1 4.69,-7.326 348.521,348.521 0 0 1 5.613,-8.054 c 1.715,-2.402 3.439,-4.798 5.082,-7.25 1.232,-1.867 2.454,-3.7470001 3.48,-5.7380001 0.56,-1.116 1.137,-2.272 1.412,-3.5 0.04,-0.18 0.063,-0.364 0.095,-0.546 0.01,-0.163 0.03,-0.325 0.03,-0.488 0.001,-0.494 -0.112,-1 -0.467,-1.36500002 -0.078,-0.08 -0.172,-0.142 -0.259,-0.213 -0.304,-0.158 -0.341,-0.201 -0.687,-0.28 -0.14,-0.031 -0.567,-0.05 -0.425,-0.064 0.458,-0.045 0.92,-0.022 1.379,-0.028 0.18,-0.002 -0.362,0.004 -0.543,0.018 -0.2,0.016 -0.4,0.048 -0.6,0.072 -0.216,0.042 -0.435,0.076 -0.65,0.127 -1.343,0.317 -2.605,0.90400002 -3.808,1.56800002 -0.774,0.46 -0.967,0.56 -1.72,1.075 a 34.845,34.845 0 0 0 -3.61,2.86 c -0.275,0.256 -0.553,0.509 -0.825,0.769 A 32.114,32.114 0 0 0 6.113,10.37322 c -0.176,0.237 -0.356,0.472 -0.528,0.712 a 23.608,23.608 0 0 0 -1.956,3.198 25.036,25.036 0 0 0 -0.925,2.14 z m 9.754,13.438 c 0.65,-0.889 1.28,-1.79 1.915,-2.689 a 511.735,511.735 0 0 1 3.649,-5.232 391.435,391.435 0 0 1 3.441,-4.738 c 0.606,-0.805 1.188,-1.627 1.81,-2.419 0.553,-0.67 0.383,-0.372 2.17,-0.082 0.068,0.01 -0.024,0.137 -0.043,0.203 -0.038,0.13 -0.187,0.495 -0.226,0.593 a 302.552,302.552 0 0 0 -1.607,3.836 69.578,69.578 0 0 0 -1.734,4.503 c -0.121,0.442 -0.29,0.888 -0.298,1.353 0,0.034 -0.006,0.31 0.112,0.335 0.048,0.01 0.092,-0.035 0.138,-0.053 -0.575,-0.023 -1.158,0.03 -1.725,-0.068 -0.113,-0.02 0.203,-0.11 0.296,-0.177 0.127,-0.094 0.245,-0.2 0.361,-0.306 0.513,-0.474 0.973,-1.005 1.436,-1.526 a 125.34,125.34 0 0 0 3.365,-4.11 c 0.703,-0.882 1.354,-1.805 2.095,-2.657 0.658,-0.692 0.685,-0.453 2.325,-0.307 0.119,0.01 -0.038,0.726 -0.046,0.764 -0.307,1.142 -0.75,2.24 -1.214,3.326 a 31.631,31.631 0 0 1 -1.688,3.403 c -0.68,1.086 -0.633,1.037 -2.568,0.782 -0.104,-0.013 -0.016,-0.209 -0.003,-0.313 0.014,-0.12 0.057,-0.236 0.085,-0.354 0.438,-1.395 1.123,-2.693 1.831,-3.967 a 32.146,32.146 0 0 1 2.594,-3.794 c 0.298,-0.349 0.59,-0.707 0.942,-1.006 0.043,-0.037 0.339,-0.277 0.433,-0.283 0.703,-0.043 1.408,-0.024 2.112,-0.035 0.05,0.052 0.109,0.097 0.15,0.157 0.181,0.266 0.223,0.622 0.252,0.932 0.04,0.426 0.027,0.566 0.024,1.008 -0.059,1.4 -0.233,2.79 -0.357,4.186 -0.044,0.612 -0.109,1.227 -0.067,1.841 0.017,0.257 0.057,0.58 0.159,0.824 0.038,0.092 0.102,0.17 0.154,0.256 0.071,0.045 0.133,0.11 0.214,0.134 0.085,0.026 0.178,0.009 0.268,0.013 l -1.576,-0.057 1.905,0.271 c -0.75,0.016 -1.5,0.065 -2.25,0.049 a 0.558,0.558 0 0 1 -0.28,-0.105 c -0.083,-0.054 -0.14,-0.141 -0.21,-0.212 -0.045,-0.1 -0.104,-0.197 -0.138,-0.303 -0.086,-0.268 -0.112,-0.592 -0.12,-0.869 -0.02,-0.622 0.053,-1.241 0.105,-1.86 0.134,-1.386 0.3,-2.773 0.314,-4.167 -0.011,-0.433 0,-0.564 -0.06,-0.979 -0.034,-0.233 -0.078,-0.613 -0.292,-0.773 -0.038,-0.028 -0.09,-0.027 -0.135,-0.041 0.589,-0.013 1.177,-0.046 1.766,-0.038 0.074,0 -0.145,0.029 -0.212,0.06 -0.09,0.04 -0.171,0.097 -0.25,0.155 -0.38,0.272 -0.684,0.627 -0.997,0.97 -0.133,0.158 -0.27,0.314 -0.4,0.475 -0.836,1.031 -1.569,2.144 -2.249,3.282 -0.686,1.247 -1.364,2.522 -1.706,3.913 -0.14,0.932 0.154,0.489 -1.917,0.425 -0.068,-0.002 0.112,-0.076 0.16,-0.124 0.171,-0.168 0.294,-0.36 0.432,-0.554 a 22.903,22.903 0 0 0 1.739,-3.376 c 0.449,-1.066 0.875,-2.15 1.118,-3.285 0.013,-0.096 0.032,-0.191 0.04,-0.287 a 0.639,0.639 0 0 0 -0.002,-0.17 c -0.002,-0.009 -0.036,0.006 -0.027,0.006 0.63,-0.016 1.26,-0.036 1.889,-0.054 -0.046,0.022 -0.095,0.036 -0.136,0.064 -0.07,0.047 -0.13,0.107 -0.194,0.16 -0.806,0.819 -1.48,1.751 -2.211,2.635 a 390.961,390.961 0 0 1 -3.352,4.119 c -0.445,0.525 -0.887,1.055 -1.363,1.553 -0.109,0.113 -0.22,0.225 -0.335,0.331 -0.087,0.081 -0.156,0.214 -0.274,0.23 -0.715,0.096 -1.441,0.066 -2.162,0.099 -0.05,-0.04 -0.114,-0.066 -0.15,-0.118 -0.087,-0.12 -0.079,-0.326 -0.066,-0.456 0.046,-0.48 0.226,-0.935 0.369,-1.39 0.56,-1.516 1.166,-3.015 1.782,-4.509 a 166.642,166.642 0 0 0 1.487,-3.834 c 0.1,-0.306 0.102,-0.295 0.176,-0.568 0.008,-0.03 -0.01,-0.088 0.02,-0.09 0.655,-0.024 1.31,0.01 1.965,0.015 -0.026,0.006 -0.055,0.004 -0.077,0.018 -0.048,0.032 -0.086,0.077 -0.13,0.116 -0.7,0.753 -1.296,1.597 -1.94,2.398 a 189.67,189.67 0 0 0 -3.51,4.728 180.457,180.457 0 0 0 -3.585,5.234 65.058,65.058 0 0 0 -1.733,2.681 l -1.983,-0.1 z"
     id="path2"
     inkscape:connector-curvature="0" />
  <path
     d="m 32.816,12.31022 c 0.22,-0.582 0.43,-1.17 0.725,-1.72 0.629,-1.1800001 1.417,-2.2600001 2.189,-3.3470001 1.008,-1.364 2.088,-2.681 3.299,-3.872 0.621,-0.612 0.797,-0.739 1.449,-1.286 0.755,-0.587 1.538,-1.16000002 2.414,-1.55400002 0.435,-0.196 0.537,-0.207 0.983,-0.33 1.092,-0.153 0.812,-0.135 2.725,-0.05 0.204,0.01 0.544,0.176 0.707,0.29 0.267,0.19 0.337,0.32 0.536,0.57600002 0.065,0.128 0.142,0.252 0.196,0.386 0.286,0.703 0.294,1.486 0.196,2.227 -0.032,0.241 -0.086,0.479 -0.128,0.718 -0.45,1.973 -1.372,3.79 -2.29,5.577 A 98.065,98.065 0 0 1 43.831,13.50322 c -0.291,0.497 -0.595,0.986 -0.892,1.48 -0.647,1.078 -1.292,2.159 -1.938,3.238 -1.39,2.358 -2.842,4.68 -4.232,7.038 -0.943,1.6 -1.303,2.252 -2.208,3.85 -1.494,2.68 -2.922,5.394 -4.386,8.09 -0.375,0.696 -0.77,1.38 -1.175,2.06 l -1.851,-0.105 a 36.44,36.44 0 0 0 1.287,-2.045 c 1.564,-2.68 3.073,-5.393 4.631,-8.077 0.414,-0.713 1.84,-3.165 2.235,-3.85 1.109,-1.925 1.072,-1.897 2.17,-3.748 0.326,-0.548 0.659,-1.093 0.987,-1.64 l 0.99,-1.656 c 1.609,-2.73 3.196,-5.476 4.648,-8.2940001 0.883,-1.772 1.768,-3.574 2.175,-5.526 0.037,-0.234 0.085,-0.466 0.111,-0.701 0.08,-0.708 0.055,-1.462 -0.248,-2.12 -0.056,-0.121 -0.134,-0.232 -0.2,-0.348 -0.083,-0.094 -0.157,-0.19600002 -0.249,-0.28000002 a 1.54,1.54 0 0 0 -0.611,-0.355 c -0.118,-0.037 -0.485,-0.062 -0.363,-0.072 0.344,-0.03 2.361,-0.062 1.035,0.008 -0.449,0.102 -0.565,0.11 -1.005,0.288 -0.902,0.36700002 -1.707,0.93000002 -2.485,1.50400002 -0.662,0.53 -0.86,0.669 -1.493,1.264 -1.242,1.17 -2.357,2.47 -3.374,3.839 -0.275,0.393 -0.563,0.779 -0.826,1.18 -0.774,1.181 -1.472,2.4470001 -1.79,3.8330001 z m 5.218,13.571 c 0.773,-0.799 1.481,-1.659 2.2,-2.507 1.113,-1.327 2.171,-2.697 3.237,-4.061 0.658,-0.86 1.327,-1.715 1.904,-2.632 0.521,-0.915 -0.061,-0.539 2.168,-0.258 0.04,0.005 -0.054,0.06 -0.075,0.093 -0.044,0.066 -0.082,0.137 -0.122,0.206 a 45.605,45.605 0 0 0 -1.49,3.068 c -0.477,1.106 -0.93,2.23 -1.207,3.405 -0.042,0.179 -0.073,0.36 -0.11,0.54 -0.029,0.349 -0.123,0.761 0.06,1.091 0.032,0.06 0.08,0.119 0.14,0.152 0.058,0.03 0.259,0.03 0.193,0.03 -0.554,-0.007 -1.109,-0.033 -1.663,-0.05 0.113,-0.031 0.231,-0.05 0.34,-0.094 0.299,-0.12 0.623,-0.334 0.878,-0.518 0.592,-0.426 1.123,-0.924 1.658,-1.417 1.192,-1.122 2.306,-2.32 3.386,-3.548 0.627,-0.686 1.186,-1.432 1.817,-2.114 0.533,-0.572 2.26,-0.833 2.163,0.1 -0.009,0.092 -0.043,0.178 -0.072,0.264 -0.08,0.241 -0.222,0.556 -0.319,0.782 a 71.788,71.788 0 0 1 -1.757,3.679 c -0.45,0.907 -0.94,1.793 -1.422,2.683 -0.41,0.782 -0.03,0.42 -2.094,0.108 -0.06,-0.01 0.055,-0.107 0.085,-0.159 0.107,-0.189 0.25,-0.416 0.361,-0.595 0.784,-1.287 1.703,-2.483 2.633,-3.666 a 47.507,47.507 0 0 1 3.256,-3.725 c 0.365,-0.36 0.725,-0.732 1.13,-1.051 0.161,-0.127 0.353,-0.265 0.548,-0.343 0.074,-0.03 0.154,-0.042 0.23,-0.062 0.712,0.024 1.427,-0.01 2.134,0.074 0.086,0.01 0.122,0.126 0.167,0.201 0.283,0.482 0.236,1.194 0.231,1.725 -0.067,1.48 -0.338,2.94 -0.56,4.402 a 29.651,29.651 0 0 0 -0.219,1.918 6.642,6.642 0 0 0 -0.018,0.908 c 0.007,0.109 0.026,0.216 0.039,0.324 0.034,0.098 0.06,0.28 0.192,0.324 0.05,0.017 0.213,-0.013 0.16,-0.015 -0.573,-0.025 -1.146,-0.035 -1.72,-0.052 l 1.934,0.265 c -0.72,0.013 -1.442,0.062 -2.162,0.04 -0.067,-0.002 -0.124,-0.061 -0.17,-0.11 -0.117,-0.125 -0.125,-0.278 -0.16,-0.435 -0.007,-0.114 -0.019,-0.228 -0.02,-0.342 a 8.076,8.076 0 0 1 0.058,-0.926 c 0.067,-0.645 0.162,-1.286 0.26,-1.927 0.23,-1.449 0.498,-2.9 0.514,-4.372 -0.013,-0.444 10e-4,-0.924 -0.171,-1.345 a 0.783,0.783 0 0 0 -0.133,-0.223 c -0.044,-0.05 -0.227,-0.105 -0.162,-0.111 0.576,-0.058 1.157,-0.031 1.736,-0.047 -0.079,0.002 -0.16,-0.01 -0.237,0.007 -0.198,0.043 -0.418,0.18 -0.577,0.291 -0.43,0.3 -0.805,0.67 -1.187,1.026 a 37.618,37.618 0 0 0 -3.305,3.7 c -0.907,1.165 -1.804,2.347 -2.514,3.647 -0.144,0.27 -0.184,0.335 -0.303,0.585 -0.02,0.042 -0.01,0.124 -0.056,0.126 -2.591,0.097 -2.32,0.45 -1.833,-0.268 a 31.65,31.65 0 0 0 1.522,-2.667 c 0.616,-1.197 1.205,-2.41 1.697,-3.664 0.118,-0.315 0.238,-0.622 0.307,-0.951 0.002,-0.007 -0.015,0.02 -0.007,0.02 0.631,-0.012 1.262,-0.064 1.893,-0.06 0.05,0 -0.088,0.048 -0.131,0.072 a 9.07,9.07 0 0 0 -0.724,0.743 c -0.404,0.449 -0.803,0.902 -1.21,1.35 a 72.72,72.72 0 0 1 -3.396,3.562 c -0.522,0.498 -1.04,1 -1.607,1.448 -0.26,0.206 -0.543,0.412 -0.836,0.572 -0.105,0.058 -0.218,0.101 -0.327,0.152 -0.733,-0.004 -1.467,0.032 -2.198,-0.013 -0.08,-0.005 -0.144,-0.077 -0.198,-0.136 -0.326,-0.357 -0.18,-0.99 -0.126,-1.405 0.043,-0.184 0.08,-0.368 0.129,-0.55 0.309,-1.177 0.761,-2.31 1.233,-3.43 0.44,-1.036 0.911,-2.058 1.37,-3.086 0.033,-0.072 0.067,-0.143 0.098,-0.215 0.02,-0.046 0.006,-0.139 0.056,-0.14 2.336,-0.057 2.32,-0.385 1.741,0.519 -0.627,0.912 -1.324,1.773 -2.01,2.641 -1.083,1.354 -2.152,2.718 -3.243,4.065 -0.683,0.84 -1.374,1.676 -2.03,2.538 z m -14.615,-15.509 c 0.256,-0.145 0.488,-0.325 0.702,-0.5260001 -0.024,0.062 0.174,-0.214 0.123,-0.173 -0.078,0.062 0.044,-0.015 -0.057,0.045 -0.531,0.4400001 -0.057,0.034 1.89,0.04 0.022,0 -0.044,-0.007 -0.066,-0.004 -0.093,0.014 -0.188,0.074 -0.267,0.118 -0.326,0.1950001 -0.633,0.4200001 -0.947,0.6330001 -0.231,0.154 -0.456,0.318 -0.676,0.486 -0.06,0.047 -0.057,0.074 -0.045,-0.03 l -2,0.065 c -0.002,-0.106 -0.004,-0.134 0.07,-0.21 0.217,-0.189 0.472,-0.33 0.702,-0.504 0.316,-0.205 0.62,-0.4280001 0.931,-0.6410001 0.668,-0.446 1.511,-0.978 2.391,-0.167 0.132,0.193 0.06,0.337 -0.081,0.5000001 -0.212,0.214 -0.45,0.398 -0.697,0.571 l -1.973,-0.204 z m 26.12,0.873 c -0.119,0.259 -0.239,0.516 -0.357,0.775 -0.006,0.013 -0.014,0.056 -0.017,0.04 -0.005,-0.024 0.007,-0.049 0.01,-0.073 -0.652,-0.024 -1.305,-0.031 -1.957,-0.072 -0.025,-0.002 0.04,-0.03 0.057,-0.047 0.056,-0.059 0.095,-0.123 0.14,-0.19 0.14,-0.238 0.273,-0.478 0.413,-0.715 0.08,-0.159 0.165,-0.314 0.304,-0.428 0.096,-0.065 0.045,-0.033 0.152,-0.096 l 1.972,0.197 c -0.1,0.07 -0.05,0.04 -0.145,0.09 -0.035,0.02 -0.074,0.036 -0.109,0.06 -0.096,0.066 -0.145,0.186 -0.201,0.283 -0.144,0.237 -0.286,0.472 -0.416,0.717 a 5.46,5.46 0 0 1 -0.18,0.3 c -0.678,0.024 -2.136,0.56 -2.03,-0.11 0.002,-0.02 0.017,-0.037 0.025,-0.055 0.15,-0.23 0.25,-0.494 0.358,-0.745 l 1.98,0.07 z"
     id="path4"
     inkscape:connector-curvature="0" />
</svg>
